<svg width="788" height="520" fill="none" xmlns="http://www.w3.org/2000/svg"><path opacity=".15" d="M659.158 499.626H472.875a8.036 8.036 0 01-8.051-8.037 8.054 8.054 0 018.051-8.037h186.283a8.037 8.037 0 110 16.074zM440.7 500.977h-41.536a5.362 5.362 0 000 10.725H440.7a5.362 5.362 0 000-10.725z" fill="#292929"/><path d="M692.793 417.673a89.352 89.352 0 01-9.101-41.877c.205-7.041 1.242-14.109.355-21.109-1.869-14.805-12.595-27.645-26.008-34.194-13.413-6.55-29.105-7.355-43.76-4.503-23.742 4.612-42.791 19.458-45.029 44.537-1.282 14.382 1.488 28.887.219 43.269a57.797 57.797 0 01-1.897 10.439l-7.177.518-54.445 3.916c-11.966.874-24.042 1.16-32.516 10.302a65.172 65.172 0 00-16.688 35.26c-1.365 9.906.15 21.136 7.655 27.726a21.778 21.778 0 001.924 1.501h182.176a53.48 53.48 0 0034.482-12.198 47.328 47.328 0 001.719-1.501c18.107-16.484 18.23-41.495 8.091-62.086z" fill="#fff" stroke="#18216D" stroke-miterlimit="10"/><path d="M591.397 402.623c-4.476-4.299-9.279-8.31-13.495-12.868-5.322-5.758-8.337-12.635-11.571-19.703-3.453-7.56-6.209-15.665-5.991-24.084a40.762 40.762 0 0113.045-27.986c4.421-4.203 11.203-7.778 12.172-14.123.941-6.127-.533-13.072 3.152-18.516 5.212-7.737 19.703-.546 24.165 4.666 5.854 6.823 5.213 18.176 13.263 23.306 3.043 1.938 6.823 2.388 10.139 3.671a21.508 21.508 0 0112.99 14.6c1.555 6.154 1.501 12.731 6.222 17.507 4.967 5.021 9.552 9.319 12.212 16.169a62.506 62.506 0 013.343 16.47c1.188 13.44-8.5 25.189-19.935 31.548a50.199 50.199 0 01-28.791 5.935c-8.297-.75-19.104-3.043-24.425-9.647a74.422 74.422 0 00-6.495-6.945z" fill="#18216D"/><path d="M576.523 358.317a48.563 48.563 0 01-37.551 31.698 43.383 43.383 0 014.093 10.916c11.68.15 23.893-3.111 32.203-11.312 8.31-8.201 11.612-21.969 5.69-32.039-.723-1.269-3.971-.614-4.435.737z" fill="#fff" stroke="#18216D" stroke-miterlimit="10"/><path d="M570.233 351.535c1.965-5.321 5.458-10.506 7.996-15.364l4.366-8.446c.969-1.87 2.129-5.895 4.299-6.714 1.76-.655 3.848.86 5.458 1.446 2.347.846 4.776 1.488 7.136 2.32 4.68 1.679 9.347 3.848 12.772 7.56a19.432 19.432 0 015.567 14.382c-.232 3.056-1.555 5.922-2.265 8.91a41.285 41.285 0 00-.723 10.698 313.962 313.962 0 002.552 33.007 11.157 11.157 0 01-.246 5.731c-1.883 4.476-13.754 3.33-17.984 3.712-6.755.6-14.532 2.21-20.905-.86a166.588 166.588 0 01-1.214-21.027c0-5.854 1.651-11.762-2.047-16.797-3.234-4.38-7-8.283-5.99-14.137a24.84 24.84 0 011.228-4.421z" fill="#005FEC"/><path d="M584.997 318.787a31.885 31.885 0 000-5.458c-.164-1.488-1.242-2.102-2.361-3.029-4.789-3.93-5.745-10.125-4.23-15.856a8.763 8.763 0 00.369-1.869 10.969 10.969 0 00-.123-1.774 9.386 9.386 0 011.651-6.373c2.92-3.943 9.906-4.189 13.795-1.651 5.294 3.425 6.018 10.739 6.209 17.043.15 4.912.286 9.811.436 14.723.15 5.267.573 11.899-4.926 14.682a8.812 8.812 0 01-6.208.614 6.59 6.59 0 01-3.234-1.883c-2.074-2.387-1.528-6.249-1.378-9.169z" fill="#fff" stroke="#18216D" stroke-miterlimit="10"/><path d="M598.096 307.639a17.51 17.51 0 01-10.711 4.817 23.443 23.443 0 0011.107.464 38.101 38.101 0 01-.396-5.281z" fill="#18216D"/><path d="M453.376 484.985l7.737-7.969a66.126 66.126 0 007.832-9.101 33.341 33.341 0 004.285-9.279c.832-2.92 1.214-6.209-.246-8.856a8.977 8.977 0 00-8.746-4.093 17.114 17.114 0 00-9.061 4.366c-5.758 4.858-9.333 11.053-12.717 17.63a628.678 628.678 0 01-11.994 22.2c-.805 1.365-2.729 4.094-2.456 5.759.273 1.664 2.729 2.278 4.585 2.442 4.271.396 8.364-.341 11.421-3.479 3.056-3.139 6.236-6.345 9.36-9.62z" fill="#005FEC"/><path d="M431.667 487.073a3.08 3.08 0 00-2.375-.423 6.01 6.01 0 00-2.074 1.078 61.956 61.956 0 01-19.512 8.937c-3.466.901-7.273 1.665-9.552 4.394-1.801 2.128-.123 4.093 1.979 5.062a19.109 19.109 0 0010.343.901c8.337-1.297 16.674.928 25.025 0 6.277-.696 8.037-5.349 9.729-10.807.259-.833.573-1.665.805-2.497-2.006-.792-4.639-.464-6.823-1.269a13.649 13.649 0 01-5.048-3.084 15.504 15.504 0 00-2.497-2.292z" fill="#18216D"/><path d="M618.646 406.607c-.791-3.275-1.965-6.645-4.407-8.76-2.443-2.115-6.455-2.443-8.474.136-.696.874-1.092 1.979-1.788 2.852-2.087 2.593-7.327.846-10.042.778-4.23-.109-8.46.136-12.677.423-10.288.682-20.563 1.583-30.838 2.483l-28.777 2.525c-4.885.423-9.784 1.05-14.683 1.364-4.23.232-7.709-.75-11.871 1.201a43.041 43.041 0 00-9.374 6.727c-4.38 3.753-8.815 7.437-13.154 11.244a224.484 224.484 0 00-7.314 6.659c-6.672 6.385-12.813 13.304-18.953 20.194a9036.293 9036.293 0 01-15.501 17.452 282.351 282.351 0 0127.536 25.148c1.569-1.364 3.084-3.111 4.094-4.093a153.942 153.942 0 006.658-6.331 9.781 9.781 0 002.634-3.78c.341-1.174.232-2.443.505-3.643.846-3.917 5.062-5.881 8.105-8.474 4.38-3.739 5.049-8.978 7.86-13.645 2.497-4.176 7.586-6.004 11.011-9.456 3.193-3.234 4.776-7.723 7.505-11.367 2.224-2.974 7.696-7.109 11.448-4.352 2.989 2.183 2.552 7.177 6.154 8.978 2.47 1.228 5.458 1.16 8.092 1.624 9.06 1.61 18.23 2.511 27.372 3.411l15.624 1.528c8.678.846 17.588 1.679 25.994-.818a26.934 26.934 0 0016.483-13.168 21.696 21.696 0 001.774-5.076c1.651-6.973.56-15.242-.996-21.764z" fill="#fff" stroke="#18216D" stroke-miterlimit="10"/><path d="M626.751 344.986c10.193 5.676 11.789 18.189 12.117 29.296.164 5.717-.164 11.571-2.306 16.865-5.758 14.191-23.197 17.739-36.842 17.289a154.891 154.891 0 01-51.292-10.63c-.1-2.985.24-5.969 1.01-8.856a127.94 127.94 0 0031.834 4.23 67.87 67.87 0 0022.965-3.165c4.68-1.638 9.292-4.312 11.339-8.474 3.67-7.464-2.456-15.474-3.33-22.91a16.674 16.674 0 01.341-7.792 15.17 15.17 0 011.638-2.988 11.43 11.43 0 013.37-3.711 7.99 7.99 0 017.137-.123c.692.282 1.366.605 2.019.969z" fill="#fff" stroke="#18216D" stroke-miterlimit="10"/><path d="M494.953 407.167h71.814a2.906 2.906 0 001.365-.369c1.978-1.132.996-3.657-1.365-3.657h-71.814a2.817 2.817 0 00-1.365.369c-2.019 1.119-1.051 3.657 1.365 3.657z" fill="#18216D"/><path d="M494.462 407.344h68.144a1.047 1.047 0 00.918-.562 1.055 1.055 0 00-.059-1.075l-23.197-34.113a1.026 1.026 0 00-.859-.451h-68.185a1.033 1.033 0 00-1.04 1.097c.011.189.073.371.18.527l23.197 34.113a1.048 1.048 0 00.901.464zm91.122-118.645a10.225 10.225 0 016.045.164 11.61 11.61 0 015.458 4.217c1.651 2.346 1.842 4.352 2.101 7.177.573 6.449 1.156 12.899 1.747 19.349a7.43 7.43 0 00.723 3.043 5.909 5.909 0 003.37 2.333 8.972 8.972 0 007.191-.423 8.726 8.726 0 003.807-6.127 25.58 25.58 0 00-.163-7.423c-.915-7.791-1.365-14.928-4.585-22.214-2.579-5.854-9.006-9.17-15.31-10.22a33.753 33.753 0 00-16.743 1.501 10.58 10.58 0 00-4.68 2.838c-1.924 2.265-1.719 4.871 1.133 5.676a15.47 15.47 0 006.017.874 35.677 35.677 0 003.889-.765z" fill="#18216D"/><path d="M595.763 297.228a4.012 4.012 0 015.458-1.856c2.17 1.364 1.787 4.448 0 5.963a3.333 3.333 0 01-4.413.102 3.329 3.329 0 01-.936-1.289 2.997 2.997 0 01-.109-1.283 1.472 1.472 0 010-1.637z" fill="#fff"/><path d="M616.777 365.644l2.497-.914a.56.56 0 01.368-.396c6.263-2.319 12.39-4.98 18.612-7.395a82.566 82.566 0 00-5.908-12.649 33.262 33.262 0 00-7.041-9.62 54.004 54.004 0 00-11.598-8.324c-1.065-.546-13.141-5.567-13.222-5.349a56.898 56.898 0 00-1.993 9.743 61.018 61.018 0 01-.614 6.4 14.35 14.35 0 001.01 10.315c2.456 4.408 4.817 8.938 7.491 13.195l4.394 6.987c1.648-.716 3.35-1.3 5.09-1.747l.914-.246z" fill="#005FEC"/><path d="M581.791 304.992a3.782 3.782 0 004.98 0c.3-.287.232-.764.273-1.174.041-.409-.259-.859-.668-.832a.823.823 0 00-.355.109c-1.256.532-2.989 1.337-4.23 1.897z" fill="#18216D"/><path d="M517.017 385.484a3.706 3.706 0 00-2.783-.469 3.698 3.698 0 00-2.3 1.636 3.694 3.694 0 00-.47 2.783 3.7 3.7 0 001.636 2.3" stroke="#C9CDD1" stroke-miterlimit="10"/><path d="M542.534 461.338c-1.829-5.199-2.975-10.725-4.585-16.02a24.015 24.015 0 00-3.029-6.822 9.886 9.886 0 00-6.004-4.244c-4.23-.805-8.447 2.211-10.384 6.059-5.049 9.974-.737 21.04 5.799 29.05 2.224 2.729 4.626 5.281 6.918 7.942 2.292 2.66 3.957 6.222 6.304 8.746 3.63 3.889 9.92 1.365 12.895-2.156 3.548-4.202-1.024-9.893-3.452-13.427a38.733 38.733 0 01-4.462-9.128z" fill="#005FEC"/><path d="M549.233 476.17l-.669.464a94.449 94.449 0 01-11.025 6.427 6.318 6.318 0 00-2.347 1.869c-.982 1.474.082 2.538.287 3.998.584 4.494.188 9.06-1.16 13.386-1.365 4.094-6.441 9.838-5.158 14.409.832 3.016 5.076 2.566 7.437 1.911a14.409 14.409 0 008.118-6.604c1.829-3.016 3.152-6.332 4.763-9.47a54.779 54.779 0 015.226-8.269 19.497 19.497 0 002.565-3.848 8.602 8.602 0 00-1.583-8.897c-1.119-1.282-1.937-2.811-3.015-4.093-1.46-1.829-1.938-2.252-3.439-1.283z" fill="#18216D"/><path d="M500.165 439.833c.573 1.501.86 3.07 1.365 4.598a37.225 37.225 0 003.725 7.587 6704.198 6704.198 0 0010.507 17.916l5.253 8.951c.232.396.628 1.229 1.105 2.211a438.957 438.957 0 0027.85-17.739c-2.047-3.343-4.366-6.563-4.844-10.411-.246-1.938 0-3.93-.218-5.881-.573-4.708-3.944-8.487-6.755-12.281-5.021-6.822-8.596-14.614-12.867-21.968a97.667 97.667 0 00-1.556-2.593 55.659 55.659 0 00-10.738-13.14 43.775 43.775 0 00-6.932-4.68c-2.061-1.188-3.575-2.893-5.799-3.807-9.661-3.971-17.275 3.834-17.575 13.645-.205 6.945 2.906 13.549 6.345 19.58a148.893 148.893 0 007.641 12.117 28.304 28.304 0 013.493 5.895z" fill="#fff" stroke="#18216D" stroke-miterlimit="10"/><path d="M606.215 353.882a68.79 68.79 0 01-2.483 23.988c.423-1.46 4.502-4.011 5.676-5.171 1.173-1.16 4.53-3.739 4.735-5.704.204-1.965-2.197-4.653-3.111-6.14a78.45 78.45 0 00-4.817-6.973z" fill="#18216D"/><path d="M600.784 314.53c.151 5.267.574 11.898-4.925 14.682a8.815 8.815 0 01-6.209.614" fill="#fff"/><path d="M600.784 314.53c.151 5.267.574 11.898-4.925 14.682a8.815 8.815 0 01-6.209.614" stroke="#18216D" stroke-miterlimit="10"/><path d="M594.262 448.375c12.035-1.951 23.62 5.349 35.778 6.29l-35.778-6.29z" fill="#fff"/><path d="M594.262 448.375c12.035-1.951 23.62 5.349 35.778 6.29" stroke="#18216D" stroke-miterlimit="10"/><path d="M622.903 444.595a44.633 44.633 0 0019.322.928l-19.322-.928z" fill="#fff"/><path d="M622.903 444.595a44.633 44.633 0 0019.322.928m4.871-42.641a41.002 41.002 0 01-8.187 29.856" stroke="#18216D" stroke-miterlimit="10"/><path d="M469.041 485.804c-.437-3.043-.792-10.917-4.503-12.063-8.624-2.661-3.193 18.244-2.429 20.945a1.92 1.92 0 00.9 1.188 5.999 5.999 0 003.439 3.384 2.029 2.029 0 001.992-.533c.229-.225.431-.477.601-.75a1.77 1.77 0 00.682-1.515.286.286 0 000-.109c.819-3.234-.3-7.9-.682-10.547zm-19.513-19.213c-2.906.164-5.936 3.602-7.846 5.458a53.237 53.237 0 00-7.559 9.388 1.851 1.851 0 00.096 2.239c.171.207.385.374.627.49.709 2.17 3.302 2.511 5.458 1.992a15.664 15.664 0 008.282-5.703c1.897-2.388 4.258-5.554 4.722-8.638.368-2.456-.942-5.39-3.78-5.226zm24.793-15.856c-5.021.328-14.382.383-17.261 5.459a3.96 3.96 0 001.365 5.458c2.729 1.91 6.263 1.105 9.21.286a1.9 1.9 0 001.078-.723 23.777 23.777 0 006.536-2.511c1.951-1.091 4.503-2.729 4.216-5.226-.286-2.497-3.042-2.879-5.144-2.743zm3.057-17.397c-1.611-4.38-5.213-7.983-8.924-10.63a1.769 1.769 0 00-2.265.07 1.752 1.752 0 00-.464.667 4.098 4.098 0 00-4.162 1.283c-2.647 2.893-1.256 8.187.573 11.148 2.006 3.22 7.245 6.822 11.189 6.277 4.285-.601 5.335-5.336 4.053-8.815zm-34.605 17.179a1.912 1.912 0 00-1.241 0 2.914 2.914 0 00-2.492.616 2.927 2.927 0 00-1.042 2.345c0 2.525 1.855 5.172 3.67 6.823a13.106 13.106 0 007.56 3.275 2.063 2.063 0 002.046-2.047 11.719 11.719 0 00-8.501-11.012zm57.105-4.162c-.846-1.364-1.255-2.879-2.633-3.725a4.229 4.229 0 00-4.912.478c-2.989 2.21-4.667 6.522-5.172 10.084-.409 2.92-.546 7.777 3.098 8.664 2.66.642 4.325-1.296 5.458-3.507a14.334 14.334 0 002.197-3.888 18.59 18.59 0 001.282-5.458 1.82 1.82 0 00.973-1.936 1.808 1.808 0 00-.291-.712zm73.507-9.715c-2.729-3.275-7.164.669-9.415 2.524a38.979 38.979 0 00-5.076 5.104c-.996 1.214-2.838 2.92-2.62 4.639 0 .164.068.327.109.491-.113.402-.19.813-.232 1.228a2.077 2.077 0 002.047 2.047c4.189 0 8.187-3.657 11.025-6.413 2.102-2.047 6.809-6.4 4.162-9.62zm-16.456-16.974c-2.647-2.17-6.454-3.999-9.961-3.48-4.094.6-5.199 4.025-3.602 7.546a13 13 0 001.146 1.992c.038.084.07.171.095.259a12.096 12.096 0 008.187 7.15c2.729.696 9.293.696 9.907-3.111.614-3.807-3.043-8.241-5.772-10.356zm37.319-4.667c-1.596-3.957-7-4.558-10.561-4.176-3.098.342-8.965.805-11.203 3.63-1.665 1.365-2.92 3.384-1.542 5.39 1.733 2.511 6.932 2.62 9.62 2.729a16.05 16.05 0 008.01-1.692c2.961-.723 7.041-2.511 5.676-5.881zm1.597 17.629c-2.838-3.165-8.378-3.711-10.425.628-1.214 2.593-.559 5.458.71 8.187a11.174 11.174 0 003.425 5.772l.586.873a2.145 2.145 0 002.685.735c.307-.144.574-.358.781-.626a7.164 7.164 0 005.69-3.602c1.651-3.398-1.119-9.374-3.452-11.967zm28.518-9.783a1.591 1.591 0 00-.29-1.296 1.602 1.602 0 00-1.17-.628c-4.967-.682-10.384-1.488-15.119.641-2.428 1.092-5.458 4.012-3.984 7 1.869 3.589 8.869 3.944 12.281 4.094 3.643.109 8.596-.805 10.506-4.353 1.406-2.579.151-4.339-2.224-5.458zm-81.311 13.563c-.464-2.238-2.374-2.961-4.435-2.947a1.91 1.91 0 00-2.292-1.078 19.54 19.54 0 00-10.916 7.027c-1.883 2.443-4.462 6.577-1.146 9.006 3.316 2.429 8.664-.996 11.475-3.016 2.416-1.719 8.037-5.567 7.314-8.992zm-14.559 24.247c-7.137.86-12.813 9.225-16.729 14.437a1.58 1.58 0 000 2.047 3.661 3.661 0 00.081 2.865c2.88 6.1 13.264-4.339 15.529-6.822 1.978-2.129 5.198-5.458 5.649-8.419.45-2.961-1.938-4.421-4.53-4.108zm-14.055-25.611a2.1 2.1 0 00-3.015-1.228c-6.7 4.189-7.369 14.859-6.959 21.927a1.987 1.987 0 001.432 1.856 3.431 3.431 0 001.327 1.903c.65.461 1.44.681 2.235.621 4.093-.109 5.676-6.481 6.317-9.551a26.938 26.938 0 00-1.337-15.528zm17.016-25.339a1.75 1.75 0 00-1.883-1.365h-.246a20.092 20.092 0 00-11.885-1.296c-4.68 0-10.411 1.842-10.234 7.041.218 6.467 13.168 4.093 16.961 3.356 3.166-.518 11.844-4.052 7.287-7.736zm-30.797 8.855c-.464.164-.928.369-1.365.546a8.86 8.86 0 00-2.865 1.365 29.134 29.134 0 00-4.476 2.851c-2.279 1.788-5.594 4.449-6.536 7.314-.832 2.47 1.174 4.408 3.575 4.408 2.729 0 5.608-1.815 7.655-3.412 1.678-1.364 7.136-7.122 6.468-10.438.273-1.46-.764-3.248-2.456-2.634zm-.451-22.473c-.818-3.903-3.725-2.948-6.413-2.457a7.881 7.881 0 01-.996 0c-2.729.192-5.144 4.094-6.345 6.332-1.528 2.729-2.729 6.372-1.078 9.347 3.411 6.208 10.602-1.719 12.54-5.035 1.351-2.252 2.865-5.458 2.292-8.187z" fill="#18216D"/><path d="M729.922 79.601H478.851v151.461h251.071V79.602z" fill="#fff" stroke="#18216D" stroke-miterlimit="10"/><path d="M497.737 224.212c-1.256-8.05.272-16.81 5.458-23.101 2.442-2.947 5.649-5.362 7.191-8.855a18.647 18.647 0 001.255-5.595c1.037-10.548-.751-22.064 4.912-31.029 2.279-3.616 5.608-6.454 8.187-9.893 4.653-6.345 6.373-14.382 10.534-21.041 4.162-6.658 12.772-11.994 19.718-8.31 6.945 3.685 7.436 13.168 5.321 20.55-2.115 7.382-6.113 14.559-5.417 22.201.628 6.672 4.817 12.608 5.567 19.28.833 7.355-2.592 14.56-2.729 21.955-.245 9.388 4.681 18.476 3.575 27.796-1.105 9.319-7.996 16.838-16.292 20.808-8.706 4.176-27.932 8.378-36.433 1.556-6.044-4.803-9.77-19.349-10.847-26.322zm122.806 8.188c-1.255-8.051.273-16.811 5.458-23.102 4.285-5.185 7.982-7.013 7.778-13.89-.246-8.706-3.166-16.484-1.801-25.435 1.814-11.899 8.678-22.487 11.148-34.263 1.978-9.552 1.364-20.236 7.436-27.782a11.74 11.74 0 017.341-4.598c7.328-.996 12.499 7.519 12.854 14.914.355 7.396-1.883 15.01.218 22.078 2.252 7.614 9.17 13.304 10.835 21.068.968 4.571 0 9.361.627 13.986.532 3.958 2.224 7.642 3.575 11.394 7.751 21.519 5.254 59.165-18.202 70.395-8.706 4.176-27.932 8.379-36.433 1.556-6.031-4.803-9.756-19.349-10.834-26.321z" fill="#005FEC"/><path d="M653.987 244.735v-.082a59.802 59.802 0 016.058-25.244c6.373-13.003 17.548-23.947 20.209-38.206 1.283-6.823.423-13.945.696-20.932.273-6.986 1.951-14.436 7.109-19.103 2.401-2.183 6.086-3.643 8.883-1.978a8.503 8.503 0 013.207 4.407c2.729 7.082 2.606 14.928 3.615 22.473 1.597 11.913 10.521 17.944 11.885 29.474 1.542 13.14-.368 26.417-4.202 39.011-4.176 13.727-7.532 28.055-21.833 34.918-12.171 5.841-24.124 7.642-31.52-5.785a38.096 38.096 0 01-4.107-18.953z" fill="#005FEC"/><path d="M537.744 228.129c-.191-3.193 1.583-6.141 3.425-8.733 6.973-9.811 15.787-18.203 22.173-28.423 3.534-5.649 7.546-11.012 8.938-17.739.539-3.26.786-6.561.737-9.865a69.425 69.425 0 012.729-19.622c3.056-9.552 9.729-18.093 18.762-22.433 15.01-7.191 38.206-6.563 46.393 10.657 3.207 6.727 3.835 14.519 3.876 21.832 0 8.87-.969 17.807.204 26.608 1.365 9.893 6.959 15.979 14.191 22.338 4.981 4.38 8.788 8.541 9.647 15.228.819 6.372-2.142 12.703-6.372 17.315-5.99 6.536-14.355 10.521-22.951 12.69-8.597 2.17-17.52 2.661-26.363 3.193-10.111.614-20.276 1.283-30.333.15-10.056-1.132-20.126-4.216-28.136-10.397-2.961-2.279-5.731-5.049-9.17-6.605-3.438-1.555-7.463-1.228-7.75-6.194z" fill="#18216D"/><path d="M610.596 239.509a87.633 87.633 0 01-12.404.736c-2.429 0-6.086.151-8.064-1.487-1.979-1.637-2.074-4.407-2.129-6.563-.204-7.723 1.365-15.351 2.156-23.033.601-6.181.655-12.622-1.241-18.598-1.733-5.459-4.353-10.248-5.213-16.088-.205-1.365 0-4.612-.914-5.745-.914-1.132-2.47-.887-3.357-2.033a6.37 6.37 0 01-1.146-4.203 9.24 9.24 0 015.458-7.777.243.243 0 00.14-.103.243.243 0 00.037-.17c-.914-9.552 3.125-19.636 11.599-24.289 8.705-4.762 18.721-8.309 27.904-2.183a22.749 22.749 0 019.033 12.922c.464 1.597 1.965 16.483 2.061 17.207a3.83 3.83 0 013.793 1.76 8.07 8.07 0 011.173 4.216 7.328 7.328 0 01-4.407 7.219c-3.411 1.364-2.483 4.925-3.329 8.187a31.06 31.06 0 01-5.458 11.216 9.11 9.11 0 00-1.46 2.306 7.882 7.882 0 00-.246 3.097c.591 10.989.846 21.987.764 32.994 0 3.316-.505 6.045-3.507 7.642-3.507 1.814-7.395 2.237-11.243 2.77z" fill="#fff" stroke="#18216D" stroke-miterlimit="10"/><path d="M594.658 128.819a23.197 23.197 0 00-10.916 8.951 24.722 24.722 0 00-3.07 14.382c.15 1.638 1.269 3.521 2.892 3.316 1.283-.164 2.006-1.514 2.729-2.606 4.626-7.027 15.692-8.528 23.443-9.047a70.904 70.904 0 015.908-.123c5.308.11 10.493 1.542 15.733 1.761 4.094.177 8.637-2.729 11.244-5.69a17.566 17.566 0 004.366-11.735 9.239 9.239 0 00-1.515-5.363c-1.773-2.429-5.198-3.37-8.064-3.206a32.768 32.768 0 00-8.023 1.446 41.621 41.621 0 01-7.983 2.388c-2.824.341-5.662 1.023-8.514 1.46-6.154.887-12.472 1.542-18.23 4.066zm16.033 58.156c-2.388.723-4.271 1.364-6.741.409-.668-.273-1.146.86-.491 1.16 2.388 1.119 5.772 1.365 7.846-.518a.625.625 0 00.102-.765.632.632 0 00-.716-.286zm-.437-15.556h-.586l-4.38.683c-5.158.805-1.57 7.409 2.524 6.413a5.176 5.176 0 002.115-.969 6.828 6.828 0 001.665-2.593 5.201 5.201 0 00.532-1.787 1.73 1.73 0 00-.751-1.624 1.868 1.868 0 00-1.119-.123zm-2.92-4.557c-1.023 0 0-6.031.082-6.823a20.958 20.958 0 00-.15-5.458c0-.286-.45-.204-.464 0-.177 3.766-1.023 7.437-1.241 11.162-.082 1.364.382 2.729 1.937 2.251a.61.61 0 00.305-.622.612.612 0 00-.469-.51zm-11.639-7.328a.953.953 0 00-.9-.682h-.096a1.08 1.08 0 00-.928.532v.069a1.077 1.077 0 00-.109 1.228l.082.109c.573.791 2.101.641 2.033-.546 0-.239-.027-.477-.082-.71zm24.507-1.255c-.915-.846-2.293.532-1.365 1.365.028.143.079.281.15.409a.9.9 0 001.556 0 1.49 1.49 0 00-.341-1.774zm-6.823 41.072a83.39 83.39 0 0010.766 5.376 2.125 2.125 0 002.672-.883c.174-.296.273-.63.289-.973a48.051 48.051 0 011.433-10.179c.464-1.719 1.992-3.125 1.992-4.898a1.361 1.361 0 00-.164-.71 1.27 1.27 0 00-1.61-.382 3.916 3.916 0 00-1.364 1.187c-3.78 4.503-7.833 6.222-13.4 7.532a2.14 2.14 0 00-1.458 3c.182.388.476.711.844.93z" fill="#18216D"/><path d="M729.922 79.601H478.851v151.461h251.071V79.602z" stroke="#18216D" stroke-miterlimit="10"/><path d="M486.424 70.418h235.952a8.185 8.185 0 018.187 8.187v10.261H478.128v-10.26a8.176 8.176 0 012.437-5.829 8.176 8.176 0 015.859-2.359z" fill="#18216D"/><path d="M489.768 85.646a5.048 5.048 0 100-10.097 5.048 5.048 0 000 10.097zm23.647-5.281a5.039 5.039 0 01-2.906 4.779 5.036 5.036 0 11-2.348-9.596 5.05 5.05 0 015.254 4.817z" fill="#fff"/><path d="M513.414 80.365a5.03 5.03 0 01-2.906 4.779 5.035 5.035 0 11-2.347-9.596 5.05 5.05 0 015.253 4.817z" fill="#fff"/><path d="M502.512 74.457l11.735 12.28m-12.008-.272l12.281-11.749" stroke="#18216D" stroke-miterlimit="10"/><path d="M439.28 27.067H255.071v151.461H439.28V27.068z" fill="#fff" stroke="#18216D" stroke-miterlimit="10"/><path d="M274.843 82.235a18.144 18.144 0 014.475-15.092c1.365-1.364 2.729-2.279 3.589-4.093a11.26 11.26 0 00.641-2.62 19.463 19.463 0 019.306-12.786c5.131-3.247 10.248-3.316 16.115-4.298 1.733-.287 3.398-.832 5.117-1.119a18.247 18.247 0 014.954-.095 25.119 25.119 0 0113.003 5.894 24.539 24.539 0 015.813 7.437c1.365 2.21 1.897 4.735 3.152 6.959 1.447 2.538 3.166 2.456 5.608 3.63a15.608 15.608 0 018.542 11.202c1.951 11.871-10.22 20.468-21.041 18.012-8.187-1.829-20.467-1.774-26.717 4.598-2.606 2.62-4.803 5.704-7.846 7.805-.314.205-.627.41-.955.601a19.5 19.5 0 01-18.571.504c-7.655-4.23-7.055-13.072-4.598-20.358a5.81 5.81 0 00.464-2.074 6.814 6.814 0 00-.451-1.788 15.46 15.46 0 01-.6-2.32z" fill="#005FEC"/><path d="M311.794 128.505c3.043 5.977 9.552 8.938 16.715 7.969h.164a13.633 13.633 0 0011.191-10.714c.371-1.799.375-3.655.012-5.455l-2.415-12.39a11.537 11.537 0 01-.219-4.967 18.417 18.417 0 012.061-4.094c5.458-9.892-.737-21.136-5.786-29.719a24.08 24.08 0 00-19.635-11.98c-17.643-.723-26.335 15.296-22.91 30.988 1.964 8.924 7.327 15.323 14.163 21 6.836 5.676 7.219 10.861 6.659 19.362z" fill="#fff" stroke="#18216D" stroke-miterlimit="10"/><path d="M295.242 72.67a11.296 11.296 0 00-.163 4.093 17.566 17.566 0 01-1.597 9.633 15.425 15.425 0 01-3.043 3.74 9.726 9.726 0 01-3.438 2.305 4.286 4.286 0 01-3.957-.491 4.575 4.575 0 01-1.474-3.93c.17-1.444.49-2.866.955-4.243.682-2.58.955-5.254 1.678-7.82a11.875 11.875 0 014.162-6.658 6.543 6.543 0 015.636-.996c.682.232 2.128.846 2.374 1.61.341 1.092-.791 1.665-1.133 2.756z" fill="#005FEC"/><path d="M300.004 71.414a24.311 24.311 0 005.063-1.965 2.811 2.811 0 011.255-.423c.386.026.76.143 1.092.341a23.044 23.044 0 007.982 2.73c2.825.177 5.977-1.147 6.932-3.808.136-.368.3-.832.696-.887a.98.98 0 01.737.341c3.206 2.73 6.481 7.41 11.352 5.227 2.593-1.16 3.93-4.094 4.094-6.987.3-6.277-4.339-12.021-10.056-14.641-5.718-2.62-12.281-2.593-18.517-1.788a40.558 40.558 0 00-12.758 3.48c-4.326 2.129-5.909 5.458-8.269 9.552a7.156 7.156 0 00-.942 6.29c1.365 2.975 5.281 3.602 8.501 3.138.958-.139 1.906-.34 2.838-.6z" fill="#005FEC"/><path d="M326.926 107.929a13.2 13.2 0 01-1.569.641c-.669.232-3.589.286-3.862.682-.846 1.242 2.225 1.528 2.729 1.61 1.306.189 2.587.518 3.821.983.946.42 1.858.913 2.729 1.473l3.37 1.979a72.015 72.015 0 01-1.364-11.448c0 .545-2.811 2.237-3.275 2.551a21.516 21.516 0 01-2.579 1.529zM304.18 83.435a1.365 1.365 0 00-1.364.382.794.794 0 00-.209.664.802.802 0 00.386.578.925.925 0 00.655.341 1.144 1.144 0 001.201-1.269.807.807 0 00-.669-.696zm22.296-3.315a1.176 1.176 0 00-.655-.478.423.423 0 00-.696-.082c-.505.505-.614.641-.464 1.365a.678.678 0 00.491.505 1.16 1.16 0 001.365-.546.708.708 0 00-.041-.764zm-7.833 6.358c-.395-1.5-1.446-3.043-1.637-4.557a.409.409 0 10-.819 0c.042 1.29.3 2.562.765 3.766.382 1.46.395 3.002.846 4.42.177.56 1.146.683 1.255 0a8.881 8.881 0 00-.41-3.629zm9.593-8.091a5.116 5.116 0 00-6.481.464.406.406 0 00.223.654.41.41 0 00.268-.027 8.365 8.365 0 012.729-1.078 7.923 7.923 0 012.92.505.315.315 0 00.394-.112.314.314 0 00-.053-.406zm-24.356 2.647a5.664 5.664 0 00-4.094 1.364.525.525 0 00-.125.294.524.524 0 00.312.523c.1.043.212.053.318.03 1.651-.437 4.203-1.938 5.84-.574a.317.317 0 00.37.04.308.308 0 00.13-.145.31.31 0 00.019-.195c-.287-1.187-1.774-1.31-2.77-1.337zm13.931 17.806c-.067-.399.02-.809.246-1.145.288-.57.612-1.122.969-1.651a4.599 4.599 0 012.033-1.856 1.979 1.979 0 012.442.737 2.612 2.612 0 01-.423 2.497c-.668 1.05-4.502 3.902-5.267 1.419z" fill="#18216D"/><path d="M334.663 66.925a11.695 11.695 0 01-5.758-1.692c-1.092-.792-3.93-3.275-3.711-4.762.068-.437-.533-.792-.778-.328-.996 1.883 1.46 4.421 2.729 5.663 2.047 2.06 4.762 2.633 7.546 3.002 1.187.15 1.187-1.788-.028-1.883zm-21.191-1.665a10.559 10.559 0 01-3.711-1.365c-.996-.668-3.521-2.606-2.47-3.93.273-.34-.178-.832-.491-.49-1.365 1.487.15 3.356 1.269 4.489 1.364 1.364 3.547 2.906 5.458 2.02a.429.429 0 00.129-.168.436.436 0 00-.184-.556zm-14.436.778a18.551 18.551 0 00-3.03-.328c-.682-.122-3.834-.941-3.001-2.115.272-.409-.369-.914-.696-.532-2.334 2.73 4.939 5.117 6.822 3.725a.427.427 0 00-.095-.75z" fill="#fff"/><path d="M439.28 27.067H255.071v151.461H439.28V27.068z" stroke="#18216D" stroke-miterlimit="10"/><path d="M294.574 191.628c-9.934-1.16-20.018-2.729-29.842-.86.764-15.555 2.933-31.247 9.019-45.575 6.086-14.327 16.374-27.29 30.36-34.112 17.466-8.624 38.671-8.624 57.078-3.18 18.066 5.363 34.973 19.185 47.84 32.598a135.175 135.175 0 0117.889 23.265 28.05 28.05 0 013.111 6.441 15.63 15.63 0 01-1.774 12.594c-7.723 12.199-26.021 8.379-37.865 9.552a430.045 430.045 0 01-31.93 2.088 436.495 436.495 0 01-63.886-2.811z" fill="#18216D"/><path d="M297.139 134.659c1.364-5.349 2.606-11.202 1.364-16.06-1.269-5.172-5.458-9.674-7.696-14.505-1.978-4.38-3.015-9.551-1.282-13.972.096-.293.244-.566.436-.805a2.143 2.143 0 013.125.464 9.412 9.412 0 011.242 3.343c.928 3.274 3.152 5.99 5.335 8.596 4.981 5.977 11.339 9.906 12.581 18.121.805 5.308.314 10.807.832 16.169.614 6.263 1.624 12.472 2.211 18.735.6 6.536 2.51 26.294-5.158 29.501-4.817 2.019-16.647.396-20.386-3.466a12.288 12.288 0 01-3.002-8.938c.247-3.221.95-6.391 2.088-9.415 2.36-7.259 4.953-14.477 6.822-21.9.41-1.829.956-3.807 1.488-5.868z" fill="#fff" stroke="#18216D" stroke-miterlimit="10"/><path d="M382.871 162.591a.819.819 0 00-.342-.573.853.853 0 00-.313-.137.851.851 0 00-.341 0c-3.165-3.261-6.522-6.918-10.37-9.237-.328-.205-.846.232-.573.573a52.42 52.42 0 005.008 5.144 439.068 439.068 0 015.54 5.622c.477.505 1.596.163 1.501-.614-.041-.26-.069-.519-.11-.778z" fill="#fff"/><path d="M394.252 159.903c-11.585 2.019-23.361 6.181-33.69 9.988a40.96 40.96 0 01-8.065 2.415c-2.985.278-5.988.31-8.978.096-7.969-.123-16.456 1.787-22.037 7.491-1.965 2.019-2.511 7.055.71 8.351 3.22 1.296 8.323-.996 11.994-.56 3.707.48 7.459.517 11.175.11a339.095 339.095 0 0134.372-1.911c13.372-.082 26.826.614 40.035-1.46a18.969 18.969 0 007.177-2.251c5.458-3.384 6.823-11.79 2.566-16.374-4.79-5.158-13.877-6.932-20.564-7.096a75.485 75.485 0 00-14.695 1.201z" fill="#fff" stroke="#18216D" stroke-miterlimit="10"/><path d="M439.28 27.067H255.071v151.461H439.28V27.068z" stroke="#18216D" stroke-miterlimit="10"/><path d="M262.644 18.566h169.091a8.188 8.188 0 018.187 8.187v10.262H254.416v-10.22a8.186 8.186 0 018.228-8.229z" fill="#18216D"/><path d="M265.987 33.794a5.049 5.049 0 100-10.097 5.049 5.049 0 000 10.097zm23.647-5.28a5.038 5.038 0 01-2.906 4.778 5.034 5.034 0 01-5.103-8.624 5.032 5.032 0 012.756-.971 5.05 5.05 0 015.253 4.817z" fill="#fff"/><path d="M289.634 28.514a5.03 5.03 0 01-2.906 4.778 5.035 5.035 0 11-2.347-9.595 5.047 5.047 0 015.253 4.817z" fill="#fff"/><path d="M278.732 22.605l11.735 12.28m-12.008-.272l12.28-11.748" stroke="#18216D" stroke-miterlimit="10"/><path d="M432.458 244.707H219.593v151.462h212.865V244.707z" fill="#fff" stroke="#18216D" stroke-miterlimit="10"/><path d="M362.294 323.385c8.556 3.821 19.008 3.698 29.897-3.193 25.093-15.883 17.861-69.59-23.797-59.056-38.985 9.907-30.074 51.552-6.1 62.249z" fill="#005FEC"/><path d="M399.696 290.405c-4.353 1.46-8.488 3.452-12.895 4.803a101.568 101.568 0 01-12.281 2.893c.191-5.458.437-10.957.737-16.497.314-5.717 1.365-11.803.832-17.507 0-.368-.586-.491-.682-.095-1.364 5.376-1.282 11.407-1.651 16.92a764.84 764.84 0 00-.982 18.202.861.861 0 001.078.833c8.814-1.365 18.721-3.48 26.458-8.092.75-.45.273-1.76-.614-1.46zm-23.279 32.817a2.023 2.023 0 01.177-1.365c.205-.382-.218-.9-.614-.628a2.247 2.247 0 00-1.023 1.883c0 .655.355 1.72 1.187 1.638a.509.509 0 00.464-.369c.205-.382-.109-.736-.191-1.159zm-27.836-30.77c-.423-.833-.942-.246-1.488 0a7.926 7.926 0 01-2.06.204c-.764.069-1.528.164-2.292.301-.478.095-.505.928 0 .996a17.66 17.66 0 004.325.245c.764-.122 2.006-.791 1.515-1.746zm28.232-32.066a.523.523 0 00-.601-.082 1.814 1.814 0 00-.696 2.238.815.815 0 00.573.573.887.887 0 00.706-.157.889.889 0 00.345-.635 2.187 2.187 0 00-.327-1.937zm-26.772 14.027a14.655 14.655 0 00-1.992-.478c-.492-.095-.874.587-.369.86.576.302 1.168.57 1.774.805.491.177 1.105.491 1.583.123a.423.423 0 00.177-.437c-.136-.559-.682-.696-1.173-.873zm7.955-5.335c-.423-.382-.86-.71-1.365-1.078-.504-.369-.736-.764-1.159-1.065a.464.464 0 00-.683.519 4.433 4.433 0 002.729 2.388.463.463 0 00.539-.195.464.464 0 00-.061-.569zm-4.462 42.75a12.426 12.426 0 00-2.402 2.224c-.327.423.096 1.174.628.819a12.469 12.469 0 002.402-2.238c.341-.396-.123-1.173-.628-.805zm8.269 6.345c-.286.491-.587.982-.887 1.474-.3.491-.532.777-.355 1.364a.588.588 0 00.696.396c.56-.15.696-.491.942-.996l.764-1.542a.67.67 0 00.076-.512.674.674 0 00-.82-.492.69.69 0 00-.239.112.69.69 0 00-.177.196zm28.778 1.255c-.273-.095-.724-.204-.765-.573a.55.55 0 00-.15-.349.554.554 0 00-.71-.089.553.553 0 00-.231.302 1.654 1.654 0 00-.076.859 1.658 1.658 0 001.072 1.277c.275.1.571.126.86.074.832-.15.641-1.255 0-1.501zm-32.79 90.345c2.552 3.179 7.451 2.647 11.394 1.665 3.944-.983 8.624-1.979 11.653.736a59.735 59.735 0 00-41.972-62.699c-10.916-3.357-21.028-2.061-32.162-1.365-12.963.833-25.53 5.39-36.705 11.885-16.839 9.798-38.657 25.394-44.484 44.702" fill="#18216D"/><path d="M292.991 378.553a17.283 17.283 0 01-3.494-3.18 11.688 11.688 0 01-1.746-9.087 48.624 48.624 0 012.988-9.02c6.372-16.688 5.158-35 11.38-51.851 1.105-2.975 2.32-6.823 4.339-9.293a34.82 34.82 0 017.246-5.744c9.674-6.55 23.347-11.162 33.021-2.061 5.213 4.913 6.318 12.759 6.141 19.922a81.164 81.164 0 01-6.073 29.051 16.577 16.577 0 01-9.756 9.238c-3.848 1.364-5.553.955-7.327 4.68a29.81 29.81 0 00-2.074 15.146 32.76 32.76 0 01.777 6.823c-1.091 12.512-15.651 12.812-24.888 10.588a34.378 34.378 0 01-10.534-5.212zm93.523-44.483a15.528 15.528 0 013.575-5.049 50.707 50.707 0 0110.193-6.727 1.66 1.66 0 011.269-.273 1.075 1.075 0 01.56 1.269 3.104 3.104 0 01-.764 1.283l-2.497 2.974c-2.975 3.548 3.943 1.365 5.048.942a26.683 26.683 0 008.488-5.008 23.773 23.773 0 012.729-2.183 6.22 6.22 0 014.257-1.01 4.997 4.997 0 013.766 4.571c.232 4.721-3.93 9.934-7.314 12.281a35.859 35.859 0 01-12.499 5.54 2.205 2.205 0 00-1.678 1.569l-11.967 43.31a125.045 125.045 0 01-4.435 13.454c-1.951 4.912-4.721 9.756-10.111 11.352a11.655 11.655 0 01-10.984-2.551c-9.415-8.501.641-25.694 4.162-34.673a504.67 504.67 0 0110.629-24.929 499.9 499.9 0 015.841-12.281c.627-1.378 1.146-2.674 1.732-3.861z" fill="#fff" stroke="#18216D" stroke-miterlimit="10"/><path d="M297.138 291.169a55.095 55.095 0 014.517-4.394c-2.606-1.787-5.049-4.803-4.094-7.818a6.825 6.825 0 013.002-3.466 15.012 15.012 0 0111.872-1.924 22.5 22.5 0 019.428 5.717c.376.413.843.731 1.365.928.41.075.831.075 1.242 0l12.853-1.242a46.973 46.973 0 0110.071-.232c5.212.628 10.847 3.275 11.325 9.047.478 5.772-3.739 10.916-8.733 13.386-5.335 2.565-11.462 2.729-17.37 2.797-5.909.069-12.022.137-17.425 2.552a10.183 10.183 0 00-5.554 5.035c-.559 1.365-.777 3.22-2.142 3.903-2.088 1.064-2.333 1.214-3.138 3.493-.928 2.647-1.992 5.267-3.125 7.846-1.133 2.579-4.571 8.187-8.051 5.349-2.592-2.102-2.319-10.917-2.469-14.069-.382-7.286-.151-17.07 3.82-23.469a24.97 24.97 0 012.606-3.439zm41.864 41.454a3.052 3.052 0 01-2.538-.109c-.56-.246-1.365.3-.914.928a3.36 3.36 0 004.475.941c1.16-.668.15-2.292-1.023-1.76zm-8.76-16.21c-1.147-.724-3.685 1.146-1.474 2.128.901.396 2.238-.518 1.91-1.542a.999.999 0 00-.436-.586zm19.021-.505a1.457 1.457 0 00-1.801 0 1.074 1.074 0 00-.109 1.364c.041.163.105.32.191.464.11.175.282.302.482.356.2.053.413.028.596-.069a1.919 1.919 0 001.009-1.215.828.828 0 00-.368-.9zm-7.928 1.951c-.163-.491-1.037-.628-1.132 0a39.348 39.348 0 01-1.037 5.158c-.314 1.132-.969 2.633-.26 3.725.574.873 2.211.328 1.788-.75-.423-1.078.559-3.343.764-4.517a7.369 7.369 0 00-.123-3.616z" fill="#18216D"/><path d="M302.529 316.194a5.939 5.939 0 00-2.811 1.065 6.713 6.713 0 00-2.47 2.319 7.693 7.693 0 00.246 8.542 5.457 5.457 0 007.491 1.051c4.625-3.289 5.185-13.741-2.456-12.977z" fill="#fff"/><path d="M303.647 320.725a2.96 2.96 0 00-2.251 1.364 2.6 2.6 0 00-.287 2.729.586.586 0 00.778.259c.369-.191.287-.709.314-1.064a2.376 2.376 0 011.583-2.21c.546-.219.464-1.147-.137-1.078zm6.304 20.658c-2.851-1.978-6.467-6.29-6.167-10.261l-.382-.109a17.808 17.808 0 01-3.589-1.255c.164.082 0 6.031.123 6.686a35.867 35.867 0 001.487 6.972c.874 2.729 3.057 10.685 7.341 8.188 2.074-1.201 4.094-2.457 6.127-3.739 1.078-.683 2.129-1.365 3.207-2.061l.354-.204a39.601 39.601 0 01-8.501-4.217zm88.216-12.526a.412.412 0 00-.481-.221.408.408 0 00-.297.439 7.303 7.303 0 01-1.364 5.458c-.328.478.368.942.764.587a5.703 5.703 0 001.378-6.263zm3.603 8.528a8.196 8.196 0 00-5.295.532 6.168 6.168 0 00-3.274 2.852.367.367 0 00.407.498.37.37 0 00.22-.129 6.36 6.36 0 014.012-2.429 17.676 17.676 0 004.012-.682c.3-.15.177-.533-.082-.642z" fill="#18216D"/><path d="M432.458 244.707H219.593v151.462h212.865V244.707z" stroke="#18216D" stroke-miterlimit="10"/><path d="M227.166 231.431h197.746a8.184 8.184 0 018.187 8.187v10.261H218.938v-10.261a8.188 8.188 0 018.228-8.187z" fill="#18216D"/><path d="M230.51 246.659a5.05 5.05 0 10-.001-10.1 5.05 5.05 0 00.001 10.1zm23.647-5.281a5.032 5.032 0 01-2.906 4.778 5.035 5.035 0 11-2.347-9.595 5.053 5.053 0 015.253 4.817z" fill="#fff"/><path d="M254.157 241.378a5.04 5.04 0 01-2.907 4.778 5.034 5.034 0 01-5.103-8.624 5.037 5.037 0 012.756-.971 5.05 5.05 0 015.254 4.817z" fill="#fff"/><path d="M243.254 235.47l11.735 12.28m-12.008-.273l12.281-11.748m156.196-11.544l16.647-20.522 6.55 20.522 14.396-21.204 6.754 21.204 14.15-20.863 6.659 20.863 13.577-20.004" stroke="#18216D" stroke-miterlimit="10"/><path d="M182.22 383.833l16.647-20.522 6.549 20.522 14.396-21.204 6.754 21.204 14.164-20.863 6.645 20.863" stroke="#00ECD0" stroke-width="2" stroke-miterlimit="10"/><path d="M283.057 478.108a6.82 6.82 0 0110.916-2.879l.423.354a6.82 6.82 0 0011.026-3.397l2.169-8.297a6.828 6.828 0 014.572-4.746 6.824 6.824 0 016.454 1.335l.259.232a6.82 6.82 0 0011.025-3.398l2.047-7.818a6.816 6.816 0 014.572-4.746 6.821 6.821 0 016.453 1.334 6.82 6.82 0 0011.025-3.397" stroke="#18216D" stroke-miterlimit="10"/><path d="M1 434.614a6.824 6.824 0 0110.916-2.879l.423.355a6.824 6.824 0 0011.025-3.398l2.17-8.296a6.822 6.822 0 0111.025-3.412l.26.232a6.815 6.815 0 006.448 1.34 6.825 6.825 0 004.577-4.737L49.89 406" stroke="#00ECD0" stroke-width="2" stroke-miterlimit="10"/><path d="M399.559 1.196a6.823 6.823 0 019.211 6.454v.56a6.816 6.816 0 003.133 5.79 6.828 6.828 0 006.569.445l7.75-3.697a6.823 6.823 0 019.702 6.236v.368a6.816 6.816 0 003.133 5.79 6.82 6.82 0 006.568.446l7.301-3.48a6.82 6.82 0 019.715 6.236v0a6.816 6.816 0 006.35 6.85 6.824 6.824 0 003.338-.614" stroke="#18216D" stroke-miterlimit="10"/><path d="M473.694 327.342a24.552 24.552 0 01-5.854-17.866 24.562 24.562 0 0126.36-22.625 24.56 24.56 0 0116.772 8.494" stroke="#00ECD0" stroke-width="2" stroke-miterlimit="10"/><path d="M676.707 39.348c7.159 0 12.962-5.804 12.962-12.963 0-7.16-5.803-12.963-12.962-12.963-7.16 0-12.963 5.804-12.963 12.963 0 7.16 5.803 12.963 12.963 12.963z" fill="#005FEC"/><path d="M712.961 377.161a29.212 29.212 0 0129.215 29.228" fill="#fff"/><path d="M712.961 377.161a29.212 29.212 0 0129.215 29.228M730.605 3.87l-40.936 40.936" stroke="#18216D" stroke-miterlimit="10"/><path fill="#fff" d="M255.371 179.197h177.387v23.197H255.371zm-32.748 217.64h169.2v28.655h-169.2zm267.445-165.106h222.416v42.3H490.068z"/><path d="M678.084 261.082l24.875-20.509 6.536 20.509 21.901-21.191 6.754 21.191 21.546-20.85 6.645 20.85L787 241.078" stroke="#00ECD0" stroke-width="2" stroke-miterlimit="10"/><path d="M564.816 254.259l-40.936 40.935m30.019-21.832l-40.935 40.936" stroke="#18216D" stroke-miterlimit="10"/></svg>