<svg width="100" height="14" fill="none" xmlns="http://www.w3.org/2000/svg"><path fill-rule="evenodd" clip-rule="evenodd" d="M14.677 1.3c-1.763-1.733-4.633-1.733-6.396 0a4.428 4.428 0 00-.28.303 4.349 4.349 0 00-.282-.304c-1.763-1.732-4.633-1.732-6.396 0a4.393 4.393 0 000 6.283l6.43 6.318a.35.35 0 00.493 0l6.431-6.318a4.392 4.392 0 000-6.283zm21 0c-1.763-1.733-4.633-1.733-6.396 0a4.416 4.416 0 00-.28.303 4.351 4.351 0 00-.282-.304c-1.763-1.732-4.633-1.732-6.396 0a4.393 4.393 0 000 6.283l6.43 6.318a.35.35 0 00.493 0l6.431-6.318a4.392 4.392 0 000-6.283zm21 0c-1.763-1.733-4.633-1.733-6.396 0a4.416 4.416 0 00-.28.303 4.351 4.351 0 00-.282-.304c-1.763-1.732-4.633-1.732-6.396 0a4.393 4.393 0 000 6.283l6.43 6.318a.35.35 0 00.493 0l6.431-6.318a4.392 4.392 0 000-6.283zm21 0c-1.763-1.733-4.633-1.733-6.396 0a4.416 4.416 0 00-.28.303 4.351 4.351 0 00-.282-.304c-1.763-1.732-4.633-1.732-6.396 0a4.393 4.393 0 000 6.283l6.43 6.318a.35.35 0 00.493 0l6.431-6.318a4.392 4.392 0 000-6.283zm21 0c-1.763-1.733-4.633-1.733-6.396 0a4.416 4.416 0 00-.28.303 4.351 4.351 0 00-.282-.304c-1.763-1.732-4.633-1.732-6.396 0a4.393 4.393 0 000 6.283l6.43 6.318a.35.35 0 00.493 0l6.431-6.318a4.392 4.392 0 000-6.283z" fill="#FF523D" opacity=".8"/></svg>