<svg width="108" height="16" fill="none" xmlns="http://www.w3.org/2000/svg"><path fill-rule="evenodd" clip-rule="evenodd" d="M16.383 5.832l-5.327-.774L8.674.23a.377.377 0 00-.65 0L5.64 5.057l-5.329.775a.363.363 0 00-.202.619l3.857 3.758-.91 5.306a.363.363 0 00.526.383l4.765-2.505 4.766 2.504a.363.363 0 00.526-.383l-.91-5.305 3.856-3.758a.363.363 0 00-.201-.619zm22.646 0L33.7 5.058 31.319.23a.378.378 0 00-.65 0l-2.384 4.827-5.329.775a.363.363 0 00-.202.619l3.857 3.758-.91 5.306a.363.363 0 00.526.383l4.765-2.505 4.766 2.504a.363.363 0 00.526-.383l-.91-5.305 3.856-3.758a.363.363 0 00-.201-.619zm22.645 0l-5.328-.774L53.964.23a.377.377 0 00-.65 0L50.93 5.057l-5.33.775a.363.363 0 00-.201.619l3.856 3.758-.91 5.306a.363.363 0 00.526.383l4.766-2.505 4.765 2.504a.363.363 0 00.526-.383l-.91-5.305 3.856-3.758a.363.363 0 00-.201-.619zm22.645 0l-5.328-.774L76.61.23a.377.377 0 00-.65 0l-2.383 4.827-5.33.775a.363.363 0 00-.201.619l3.856 3.758-.91 5.306a.363.363 0 00.526.383l4.766-2.505 4.765 2.504a.363.363 0 00.527-.383l-.91-5.305 3.856-3.758a.363.363 0 00-.202-.619zm22.645 0l-5.328-.774L99.254.23a.377.377 0 00-.65 0L96.22 5.057l-5.33.775a.363.363 0 00-.201.619l3.856 3.758-.91 5.306a.363.363 0 00.526.383l4.766-2.505 4.765 2.504a.363.363 0 00.527-.383l-.911-5.305 3.857-3.758a.364.364 0 00-.202-.619z" fill="#F5A623"/></svg>