<svg width="22" height="23" viewBox="0 0 22 23" fill="none" xmlns="http://www.w3.org/2000/svg">
<ellipse opacity="0.2" cx="11" cy="11.1964" rx="11" ry="11.1964" fill="#005FEC"/>
<path d="M15.5633 7.19363C15.1121 6.94631 14.6087 7.42328 14.3137 7.70593C13.6368 8.37723 13.0641 9.15452 12.4219 9.86115C11.7103 10.6384 11.0508 11.4157 10.3219 12.1754C9.90532 12.5994 9.45407 13.0587 9.17638 13.5886C8.55157 12.9703 8.01354 12.299 7.31931 11.7514C6.81599 11.3628 5.98291 11.0801 6.00027 12.0164C6.03498 13.2354 7.09368 14.5426 7.87469 15.3729C8.20445 15.7262 8.63835 16.0972 9.14166 16.1148C9.74912 16.1502 10.3739 15.4082 10.7384 15.0019C11.3806 14.2953 11.9013 13.5003 12.4913 12.776C13.255 11.8221 14.036 10.8858 14.7823 9.91414C15.2509 9.31351 16.7261 7.82956 15.5633 7.19363ZM6.76389 11.9457C6.74654 11.9457 6.72918 11.9457 6.69447 11.9634C6.62505 11.9457 6.57298 11.928 6.50356 11.8927C6.55562 11.8574 6.6424 11.875 6.76389 11.9457Z" fill="#005FEC"/>
</svg>
